<?xml version='1.0' encoding='iso-8859-1'?>
<!DOCTYPE svg PUBLIC '-//W3C//DTD SVG 1.1//EN' 'http://www.w3.org/Graphics/SVG/1.1/DTD/svg11.dtd'>
<svg version="1.1" xmlns="http://www.w3.org/2000/svg" viewBox="0 0 456.927 456.927" xmlns:xlink="http://www.w3.org/1999/xlink" enable-background="new 0 0 456.927 456.927">
  <g>
    <path d="m287.153,143.723h-135.399c-9.396,0-17.041,7.645-17.041,17.041v135.398c0,9.396 7.645,17.041 17.041,17.041h135.398c9.396,0 17.041-7.645 17.041-17.041v-135.398c0.001-9.396-7.644-17.041-17.04-17.041zm7.041,152.44c0,3.882-3.159,7.041-7.041,7.041h-135.399c-3.882,0-7.041-3.159-7.041-7.041v-135.399c0-3.882 3.159-7.041 7.041-7.041h135.398c3.882,0 7.041,3.159 7.041,7.041v135.399z"/>
    <path d="m330.87,162.129h-4.176v-7.336c0-18.511-15.06-33.57-33.57-33.57h-1.705v-102.651c-0.001-10.24-8.332-18.572-18.573-18.572h-106.785c-10.241,0-18.572,8.332-18.572,18.572v102.651h-1.705c-18.511,0-33.57,15.06-33.57,33.57v147.34c0,18.511 15.06,33.57 33.57,33.57h1.705v102.651c0,10.241 8.332,18.572 18.572,18.572h106.786c10.241,0 18.572-8.332 18.572-18.572v-102.65h1.705c18.511,0 33.57-15.06 33.57-33.57v-80.379h4.176c7.633,0 13.844-6.21 13.844-13.844v-31.938c-0.001-7.633-6.211-13.844-13.844-13.844zm-54.452-110.469h-113.93v-17h113.93v17zm0,10v24.215h-113.93v-24.215h113.93zm-110.357-46.66h106.786c1.97,0 3.572,1.603 3.572,3.572v6.088h-113.93v-6.088c-0.001-1.969 1.602-3.572 3.572-3.572zm-3.573,80.875h113.93v25.348h-113.93v-25.348zm0,309.392h113.93v17h-113.93v-17zm0-10v-24.215h113.93v24.215h-113.93zm110.358,46.66h-106.785c-1.97,0-3.572-1.603-3.572-3.572v-6.088h113.93v6.088c-0.001,1.969-1.603,3.572-3.573,3.572zm3.572-80.875h-113.93v-25.348h113.93v25.348zm35.276-58.919c0,10.24-8.331,18.57-18.57,18.57h-147.34c-10.24,0-18.57-8.331-18.57-18.57v-147.34c0-10.24 8.331-18.57 18.57-18.57h147.34c10.24,0 18.57,8.331 18.57,18.57v147.34zm23.019-94.222c0,2.12-1.724,3.844-3.844,3.844h-4.176v-39.625h4.176c2.12,0 3.844,1.724 3.844,3.844v31.937z"/>
  </g>
</svg>
