<?xml version="1.0" encoding="utf-8"?>
<!-- Generator: Adobe Illustrator 17.0.0, SVG Export Plug-In . SVG Version: 6.00 Build 0)  -->
<!DOCTYPE svg PUBLIC "-//W3C//DTD SVG 1.1//EN" "http://www.w3.org/Graphics/SVG/1.1/DTD/svg11.dtd">
<svg version="1.1" id="Layer_1" xmlns="http://www.w3.org/2000/svg" xmlns:xlink="http://www.w3.org/1999/xlink" x="0px" y="0px"
	 width="512px" height="512px" viewBox="0 0 512 512" enable-background="new 0 0 512 512" xml:space="preserve">
<g>
	<path fill-rule="evenodd" clip-rule="evenodd" d="M277.602,44.555C311.243,0.217,358.011,0,358.011,0s6.955,41.686-26.463,81.844
		c-35.684,42.88-76.245,35.862-76.245,35.862S247.687,83.983,277.602,44.555z"/>
	<path fill-rule="evenodd" clip-rule="evenodd" d="M259.582,146.908c17.307,0,49.426-23.79,91.234-23.79
		c71.966,0,100.277,51.208,100.277,51.208s-55.372,28.31-55.372,97.004c0,77.493,68.977,104.199,68.977,104.199
		S416.48,511.248,351.352,511.248c-29.915,0-53.17-20.159-84.689-20.159c-32.119,0-63.994,20.912-84.753,20.912
		c-59.473,0-134.608-128.741-134.608-232.227c0-101.817,63.597-155.228,123.249-155.228
		C209.328,124.545,239.422,146.908,259.582,146.908z"/>
</g>
</svg>
