<?xml version="1.0" encoding="utf-8"?>
<!-- Generator: Adobe Illustrator 17.0.0, SVG Export Plug-In . SVG Version: 6.00 Build 0)  -->
<!DOCTYPE svg PUBLIC "-//W3C//DTD SVG 1.1//EN" "http://www.w3.org/Graphics/SVG/1.1/DTD/svg11.dtd">
<svg version="1.1" id="Layer_1" xmlns="http://www.w3.org/2000/svg" xmlns:xlink="http://www.w3.org/1999/xlink" x="0px" y="0px"
	 width="512px" height="512px" viewBox="0 0 512 512" enable-background="new 0 0 512 512" xml:space="preserve">
<g id="htc">
	<polygon points="333.654,213.508 181.176,213.508 181.176,240.169 244.088,240.169 244.088,340.429 270.743,340.429 
		270.743,240.169 333.654,240.169 	"/>
	<path d="M512,212.314c0,0-58.789,0-96.584,0c-37.797,0-58.289,21.286-58.289,63.855c0,36.603,13.73,64.813,60.078,64.813
		c46.353,0,94.795,0,94.795,0v-26.619c0,0-73.111,0-93.6,0c-20.494,0-34.815-4.018-34.815-37.716
		c0-33.699,20.192-37.875,32.031-37.875c11.835,0,96.385,0,96.385,0V212.314z"/>
	<path d="M94.542,212.116c-40.185,0-34.912,0.198-43.964,0.198c-7.255,0-18.339,2.942-24.402,7.696v-48.993H0v169.966h26.175v-60.24
		v-12.93c0-13.921,9.681-29.635,27.984-29.635c19.495,0,24.07,0,41.775,0c17.704,0,30.837,9.348,30.837,29.837
		c0,20.49,0,72.807,0,72.807l26.655,0.161c0,0,0-58.245,0-75.154C153.425,237.774,134.726,212.116,94.542,212.116z"/>
</g>
</svg>
