<?xml version="1.0" encoding="utf-8"?>
<!-- Generator: Adobe Illustrator 17.0.0, SVG Export Plug-In . SVG Version: 6.00 Build 0)  -->
<!DOCTYPE svg PUBLIC "-//W3C//DTD SVG 1.1//EN" "http://www.w3.org/Graphics/SVG/1.1/DTD/svg11.dtd">
<svg version="1.1" id="Layer_1" xmlns="http://www.w3.org/2000/svg" xmlns:xlink="http://www.w3.org/1999/xlink" x="0px" y="0px"
	 width="512px" height="512px" viewBox="0 0 512 512" enable-background="new 0 0 512 512" xml:space="preserve">
<g>
	<path fill-rule="evenodd" clip-rule="evenodd" d="M121.926,377.925c67.337,0,121.926-54.588,121.926-121.926
		c0-67.336-54.588-121.925-121.926-121.925S0,188.663,0,255.999C0,323.336,54.589,377.925,121.926,377.925L121.926,377.925z"/>
	<polygon fill-rule="evenodd" clip-rule="evenodd" fill="#FFFFFF" points="151.616,298.901 126.364,298.901 126.364,203.48 
		117.002,203.48 117.002,308.327 126.364,308.327 126.364,308.26 151.616,308.26 151.616,298.901 	"/>
	<path fill-rule="evenodd" clip-rule="evenodd" fill="#FFFFFF" d="M214.636,259.898h-62.873v-9.358h72.085
		c0.096,1.812,0.143,3.625,0.143,5.459c0,56.37-45.697,102.066-102.065,102.066c-56.368,0-102.066-45.696-102.066-102.066
		c0-56.369,45.698-102.065,102.066-102.065c1.488,0,2.969,0.031,4.441,0.095l-0.011,9.293c-1.469-0.068-2.945-0.102-4.429-0.102
		c-51.24,0-92.78,41.54-92.78,92.779c0,51.241,41.54,92.781,92.78,92.781c49.843,0,90.505-39.302,92.688-88.606L214.636,259.898
		L214.636,259.898z"/>
	<path fill-rule="evenodd" clip-rule="evenodd" fill="#FFFFFF" d="M83.853,231.729c7.919,0,14.34-6.42,14.34-14.34
		c0-7.92-6.421-14.339-14.34-14.339c-7.921,0-14.34,6.419-14.34,14.339C69.513,225.309,75.932,231.729,83.853,231.729
		L83.853,231.729z"/>
	<polygon fill-rule="evenodd" clip-rule="evenodd" points="304.394,315.846 391.514,315.846 391.514,289.536 338.932,289.536 
		336.387,289.536 336.387,286.988 336.387,195.315 304.394,195.315 304.394,315.846 	"/>
	<path fill-rule="evenodd" clip-rule="evenodd" d="M496.783,203.802c-9.995-7.738-22.849-11.663-38.2-11.663
		c-18.226,0-33.451,5.595-44.036,16.175c-11.054,11.057-16.9,27.342-16.9,47.099c0,21.105,6.186,38.913,17.414,50.141
		c8.809,8.809,20.565,13.467,34.001,13.467c29.505,0,36.295-17.688,36.295-17.688v8.127v6.385H512v-68.075h-53.039v21.298h21.34
		h3.075c0,0,0.236,26.815-24.96,26.815c-6.401,0-12.105-2.32-16.495-6.711c-6.836-6.831-10.445-18.334-10.445-33.26
		c0-24.715,9.823-39.468,26.271-39.468c10.273,0,17.995,6.309,19.975,15.87h33.936C509.895,218.424,506.084,211.183,496.783,203.802
		L496.783,203.802z"/>
</g>
</svg>
