<?xml version="1.0" encoding="utf-8"?>
<!-- Generator: Adobe Illustrator 17.0.0, SVG Export Plug-In . SVG Version: 6.00 Build 0)  -->
<!DOCTYPE svg PUBLIC "-//W3C//DTD SVG 1.1//EN" "http://www.w3.org/Graphics/SVG/1.1/DTD/svg11.dtd">
<svg version="1.1" id="Layer_1" xmlns="http://www.w3.org/2000/svg" xmlns:xlink="http://www.w3.org/1999/xlink" x="0px" y="0px"
	 width="512px" height="512px" viewBox="0 0 512 512" enable-background="new 0 0 512 512" xml:space="preserve">
<g>
	<polygon fill-rule="evenodd" clip-rule="evenodd" points="0,426.227 12.515,383.656 34.07,383.656 39.511,401.85 55.148,383.571 
		78.029,383.571 66.123,426.191 48.834,426.249 55.148,404.263 35.087,426.249 26.587,426.249 20.393,402.73 13.434,426.249 
		0,426.227 	"/>
	<polygon fill-rule="evenodd" clip-rule="evenodd" points="152.265,383.564 205.371,383.656 202.18,397.403 183.948,397.403 
		176.457,426.227 159.649,426.249 166.636,397.525 148.69,397.525 152.265,383.564 	"/>
	<path fill-rule="evenodd" clip-rule="evenodd" d="M294.704,383.642v9.9h0.028l-2.072,8.234h18.206c0,0,4.423-0.766,4.673-4.801
		c0.208-3.571-3.11-3.32-3.11-3.32l-17.726-0.063v-9.936l27.43-0.014c0,0,11.739,0.888,10.592,11.045
		c-1.174,10.151-11.967,13.389-11.967,13.389s-0.655,0.647-0.145,1.032c0.509,0.375,4.537,1.134,5.046,4.932
		c0.509,3.807-1.322,6.573-1.322,7.727c0,1.132,0.118,3.413,1.558,4.424h-17.332c0,0-3.095-0.475-2.824-3.67
		c0.258-3.156,0.4-5.935,0.4-5.935s-0.259-3.31-4.902-2.917l-12.673-0.128l-3.612,12.687h-15.898l12.1-42.585H294.704
		L294.704,383.642z"/>
	<polygon fill-rule="evenodd" clip-rule="evenodd" points="415.08,383.642 431.349,383.642 423.465,414.527 450.235,414.527 
		447.124,426.263 403.967,426.263 415.08,383.642 	"/>
	<polygon fill-rule="evenodd" clip-rule="evenodd" points="502.237,383.606 512,426.249 495.076,426.249 493.285,418.857 
		493.222,418.714 472.722,418.714 472.65,418.779 467.697,426.227 453.369,426.249 482.305,383.606 487.917,396.177 
		479.524,408.601 479.768,408.695 490.638,408.695 490.835,408.672 487.917,396.177 482.305,383.606 502.237,383.606 	"/>
	<path fill-rule="evenodd" clip-rule="evenodd" d="M115.946,393.082c5.163,0,10.243,2.551,11.046,6.258
		c2.452,11.854-10.191,16.929-8.708,16.185c-7.271,3.606-18.321,2.45-19.62-5.024c-1.232-7.182,4.315-14.258,8.983-15.942
		C110.844,393.404,113.48,392.917,115.946,393.082l0.036-0.114l0.059-11.046c-3.341,0.065-7.103,0.48-10.071,1.06
		c-12.744,2.445-28.807,14.021-25.977,28.68c2.382,12.386,19.189,19.037,38.028,15.395c17.667-3.39,29.236-16.996,26.748-29.064
		c-2.392-11.677-16.219-16.07-28.726-16.07v9.554L115.946,393.082L115.946,393.082z"/>
	<path fill-rule="evenodd" clip-rule="evenodd" d="M239.468,393.082c5.155,0,10.256,2.551,11.011,6.258
		c2.495,11.854-10.158,16.929-8.651,16.185c-7.284,3.606-18.343,2.45-19.634-5.024c-1.248-7.182,4.301-14.258,8.982-15.942
		C234.364,393.404,237.033,392.917,239.468,393.082l0.036-0.114l0.072-11.046c-3.326,0.065-7.111,0.48-10.093,1.06
		c-12.735,2.445-28.82,14.021-25.991,28.68c2.38,12.386,19.227,19.037,38.034,15.395c17.684-3.39,29.265-16.996,26.773-29.064
		c-2.396-11.677-16.222-16.07-28.722-16.07v9.554L239.468,393.082L239.468,393.082z"/>
	<path fill-rule="evenodd" clip-rule="evenodd" d="M373.756,392.968c5.152,0.287,10.207,2.665,10.989,6.372
		c2.472,11.854-10.178,16.929-8.66,16.185c-7.287,3.606-18.34,2.45-19.639-5.024c-1.24-7.182,4.293-14.258,8.983-15.942
		C369.269,393.161,370.767,392.774,373.756,392.968l0.066-11.046c-3.326,0.065-7.074,0.48-10.094,1.06
		c-12.716,2.445-28.785,14.021-25.97,28.68c2.382,12.386,19.214,19.037,38.035,15.395c17.668-3.39,29.252-16.996,26.742-29.064
		c-2.387-11.677-16.214-16.07-28.713-16.07v9.554L373.756,392.968L373.756,392.968z"/>
	<path fill-rule="evenodd" clip-rule="evenodd" d="M256.189,83.95c71.852,0,128.404,57.867,128.404,128.354
		c0,70.904-57.5,128.367-128.404,128.367c-70.901,0-128.367-57.463-128.367-128.367C127.822,141.4,185.288,83.95,256.189,83.95
		L256.189,83.95L256.189,83.95z M255.903,239.22l-35.911-119.136l-46.496,152.531h8.725c0,0,5.876-26.535,15.395-42.385
		c5.197-8.591,13.197-15.632,23.898-15.429c7.541,0.135,14.06,4.265,22.213,15.645c4.902,6.845,12.45,24.256,12.45,24.256
		s7.547-17.39,12.464-24.256c8.122-11.38,14.653-15.509,22.207-15.645c10.679-0.202,18.709,6.838,23.883,15.446
		c9.54,15.834,15.396,42.369,15.396,42.369h8.744l-46.525-152.531L256.433,239.22l-0.244,0.215L255.903,239.22L255.903,239.22z"/>
</g>
</svg>
