<?xml version="1.0" encoding="utf-8"?>
<!-- Generator: Adobe Illustrator 17.0.0, SVG Export Plug-In . SVG Version: 6.00 Build 0)  -->
<!DOCTYPE svg PUBLIC "-//W3C//DTD SVG 1.1//EN" "http://www.w3.org/Graphics/SVG/1.1/DTD/svg11.dtd">
<svg version="1.1" id="Layer_1" xmlns="http://www.w3.org/2000/svg" xmlns:xlink="http://www.w3.org/1999/xlink" x="0px" y="0px"
	 width="512px" height="512px" viewBox="0 0 512 512" enable-background="new 0 0 512 512" xml:space="preserve">
<g>
	<path fill-rule="evenodd" clip-rule="evenodd" d="M280.758,253.33c0,0-4.981-3.081-8.064-4.272c0,0-9.533-4.418-11.427-6.521
		c0,0-3.712-3.502-1.539-7.568c0,0,0.909-2.661,4.836-2.661c0,0,5.112,0.281,5.112,4.483v5.928h18.322l-0.033-8.731
		c0,0,1.409-14.296-21.582-14.924c0,0-18.079-1.189-23.264,8.55c0,0-2.034,2.171-2.034,9.738v5.467c0,0-0.208,6.307,3.014,10.37
		c0,0,1.821,2.663,6.308,5.606c0,0,9.11,4.905,14.575,7.712c0,0,5.519,3.149,4.791,8.161c0,0-0.446,5.146-5.776,4.936
		c0,0-4.875-0.221-4.875-5.267v-5.923h-19.522v8.606c0,0-0.549,16.459,24.541,16.459c0,0,23.966,0.488,25.087-16.892v-7.003
		C289.23,269.584,290.073,258.934,280.758,253.33L280.758,253.33z"/>
	<polygon fill-rule="evenodd" clip-rule="evenodd" points="186.961,221.11 180.827,259.555 179.392,259.555 173.531,221.455 
		142.927,221.455 141.395,291.071 159.515,291.071 159.732,238.617 161.156,238.617 170.761,291.06 189.824,291.06 199.312,238.637 
		200.573,238.637 201.011,291.071 219.225,291.071 217.266,221.11 186.961,221.11 	"/>
	<polygon fill-rule="evenodd" clip-rule="evenodd" points="79.099,221.399 67.043,290.993 86.548,290.993 93.689,237.032 
		95.294,237.032 102.433,290.993 121.936,290.993 109.883,221.399 79.099,221.399 	"/>
	<path fill-rule="evenodd" clip-rule="evenodd" d="M488.41,252.371v10.268h5.002v11.021c0,5.384-4.603,5.484-4.603,5.484
		c-5.6,0-5.389-5.118-5.389-5.118v-38.119c0-3.927,4.968-4.137,4.968-4.137c4.77,0,4.804,4.684,4.804,4.684v5.797h18.365
		c0.599-11.312-1.654-14.052-1.654-14.052c-4.557-10.231-21.792-9.671-21.792-9.671c-26.486,0-23.548,20.322-23.548,20.322v36.858
		c0.568,19.058,26.664,17.124,27.108,17.101c11.611-1.285,15.116-4.972,15.116-4.972c3.227-2.397,4.06-5.712,4.06-5.712
		c0.919-1.935,1.153-8.096,1.153-8.096v-21.655H488.41L488.41,252.371z"/>
	<polygon fill-rule="evenodd" clip-rule="evenodd" points="427.532,263.698 426.734,263.698 408.091,221.127 385.797,221.127 
		385.797,291.083 403.944,291.083 402.856,248.517 403.666,248.517 422.975,291.083 444.601,291.083 444.601,221.122 
		426.224,221.122 427.532,263.698 	"/>
	<path fill-rule="evenodd" clip-rule="evenodd" d="M341.491,273.651c0,0,0.264,5.742-5.058,5.742c0,0-5.602,0.3-5.602-5.6
		l-0.056-52.624h-19.907v52.205c0,0-2.041,19.76,25.841,19.76c0,0,24.235,0.288,24.235-18.854v-53.11h-19.453V273.651
		L341.491,273.651z"/>
	<path fill-rule="evenodd" clip-rule="evenodd" d="M41.148,253.328c0,0-4.974-3.079-8.058-4.271c0,0-9.529-4.414-11.419-6.521
		c0,0-3.715-3.506-1.54-7.565c0,0,0.908-2.662,4.83-2.662c0,0,5.116,0.278,5.116,4.481v5.928h18.328l-0.036-8.734
		c0,0,1.4-14.296-21.582-14.922c0,0-1.73-0.112-4.271,0.016c0,0-13.922,0.748-18.899,8.384c-0.028,0.055-0.069,0.099-0.097,0.149
		c0,0-2.032,2.168-2.032,9.738v5.467c0,0-0.21,6.306,3.015,10.37c0,0,1.821,2.663,6.307,5.606c0,0,9.104,4.904,14.572,7.709
		c0,0,5.524,3.15,4.795,8.165c0,0-0.449,5.146-5.776,4.936c0,0-4.874-0.221-4.874-5.267v-5.927H0.001v8.61
		c0,0-0.546,16.459,24.539,16.459c0,0,23.964,0.488,25.09-16.892v-7.001C49.63,269.586,50.47,258.934,41.148,253.328L41.148,253.328
		z"/>
</g>
</svg>
