<?xml version="1.0" encoding="utf-8"?>
<!-- Generator: Adobe Illustrator 17.0.0, SVG Export Plug-In . SVG Version: 6.00 Build 0)  -->
<!DOCTYPE svg PUBLIC "-//W3C//DTD SVG 1.1//EN" "http://www.w3.org/Graphics/SVG/1.1/DTD/svg11.dtd">
<svg version="1.1" id="Layer_1" xmlns="http://www.w3.org/2000/svg" xmlns:xlink="http://www.w3.org/1999/xlink" x="0px" y="0px"
	 width="512px" height="512px" viewBox="0 0 512 512" enable-background="new 0 0 512 512" xml:space="preserve">
<g>
	<path d="M380.641,447.997H131.356v-80.418c55.791,17.847,102.287-1.862,124.705-23.786c22.369,21.925,68.866,41.633,124.657,23.786
		L380.641,447.997z M255.992,494.723c-9.49,0-17.284-7.718-17.284-17.298c0-9.566,7.718-17.284,17.284-17.284
		c9.58,0,17.367,7.718,17.367,17.284C273.359,487.005,265.572,494.723,255.992,494.723 M83.845,222.998l-3.14-49.775
		c-0.57-8.941,2.355-17.374,8.371-23.717c5.926-6.363,14.137-9.858,23.133-9.858h82.78c9.017,0,17.222,3.494,23.147,9.858
		c6.002,6.343,8.927,14.776,8.357,23.717l-3.147,49.775c-1.202,19.139-17.847,34.797-37.062,34.797h-65.35
		C101.713,257.796,85.075,242.137,83.845,222.998 M380.641,54.86v66.066h-63.579c-14.283,0-27.357,5.578-36.847,15.721
		c-8.496,9.073-12.998,20.778-13.22,33.283h-21.925c-0.292-12.505-4.717-24.21-13.22-33.283
		c-9.49-10.143-22.633-15.721-36.861-15.721h-63.634V54.86H380.641z M219.492,24.926h72.999c2.355,0,4.224,1.862,4.224,4.224
		c0,2.286-1.869,4.133-4.224,4.133h-72.999c-2.286,0-4.133-1.848-4.133-4.133C215.359,26.788,217.207,24.926,219.492,24.926
		 M431.348,173.223l-3.216,49.775c-1.209,19.139-17.847,34.797-37.062,34.797h-65.281c-19.292,0-35.86-15.658-37.139-34.797
		l-3.147-49.775c-0.584-8.941,2.418-17.374,8.357-23.717c5.926-6.363,14.207-9.858,23.133-9.858h82.794
		c8.996,0,17.208,3.494,23.203,9.858C428.916,155.849,431.931,164.282,431.348,173.223 M186.286,276.497
		c28.927,0,53.923-23.495,55.791-52.353l1.917-31.067h24.009l1.924,31.067c1.862,28.858,26.933,52.353,55.784,52.353h54.93v60.362
		c-63.357-7.864-92.576-68.004-124.65-40.577c-32.074-27.35-61.279,32.713-124.636,40.577v-60.362H186.286z M453.786,323.438
		c-18.139,8.281-34.429,12.414-49.08,13.769v-62.703c22.71-5.995,40.577-26.218,42.147-50.359l3.147-49.72
		c0.931-14.207-3.786-27.642-13.366-37.778c-8.427-8.941-19.639-14.151-31.928-15.283V34.582c0-19-15.561-34.582-34.554-34.582
		H141.853c-19,0-34.561,15.582-34.561,34.582v86.782c-12.289,1.132-23.516,6.343-31.928,15.283
		c-9.503,10.136-14.297,23.571-13.366,37.778l3.147,49.72c1.57,24.141,19.417,44.363,42.147,50.359v62.703
		c-14.644-1.355-30.942-5.488-49.08-13.769c16.714,15.214,33.137,26.35,49.08,34.339v119.648c0,19.069,15.561,34.575,34.561,34.575
		h228.299c18.993,0,34.554-15.506,34.554-34.575V357.777C420.635,349.788,437.072,338.652,453.786,323.438"/>
</g>
</svg>
