<?xml version="1.0" encoding="utf-8"?>
<!-- Generator: Adobe Illustrator 17.0.0, SVG Export Plug-In . SVG Version: 6.00 Build 0)  -->
<!DOCTYPE svg PUBLIC "-//W3C//DTD SVG 1.1//EN" "http://www.w3.org/Graphics/SVG/1.1/DTD/svg11.dtd">
<svg version="1.1" id="Layer_1" xmlns="http://www.w3.org/2000/svg" xmlns:xlink="http://www.w3.org/1999/xlink" x="0px" y="0px"
	 width="512px" height="512px" viewBox="0 0 512 512" enable-background="new 0 0 512 512" xml:space="preserve">
<g>
	<defs>
		<rect id="SVGID_1_" x="107.282" width="297.435" height="512"/>
	</defs>
	<clipPath id="SVGID_2_">
		<use xlink:href="#SVGID_1_"  overflow="visible"/>
	</clipPath>
	<path clip-path="url(#SVGID_2_)" d="M256,283.063c-29.15,0-56.354,4.279-80.001,11.65c15.436-15.652,45.426-26.294,80.001-26.294
		c34.506,0,64.565,10.643,79.925,26.294C312.285,287.343,285.073,283.063,256,283.063 M256,253.789
		c-50.289,0-91.006,22.487-91.006,50.282c0,27.781,40.793,50.289,91.006,50.289s90.915-22.508,90.915-50.289
		C346.915,276.276,306.213,253.789,256,253.789 M317.641,190.356c0,11.629-9.434,21.063-21.063,21.063
		c-11.574,0-21.084-9.49-21.084-21.063c0-11.65,9.51-21.084,21.084-21.084C308.207,169.272,317.641,178.706,317.641,190.356
		 M236.416,190.356c0,11.629-9.42,21.063-20.994,21.063c-11.65,0-21.063-9.49-21.063-21.063c0-11.65,9.413-21.084,21.063-21.084
		C226.996,169.272,236.416,178.706,236.416,190.356 M380.636,447.999H131.35V54.855h249.286V447.999z M256,494.703
		c-9.58,0-17.277-7.718-17.277-17.284c0-9.559,7.697-17.277,17.277-17.277c9.566,0,17.277,7.718,17.277,17.277
		C273.277,486.985,265.566,494.703,256,494.703 M219.501,24.927h72.999c2.286,0,4.203,1.841,4.203,4.203
		c0,2.286-1.917,4.147-4.203,4.147h-72.999c-2.355,0-4.224-1.862-4.224-4.147C215.277,26.768,217.146,24.927,219.501,24.927
		 M370.139,0.001H141.861c-19,0-34.575,15.561-34.575,34.561v442.857c0,19,15.575,34.582,34.575,34.582h228.278
		c19,0,34.575-15.582,34.575-34.582V34.563C404.714,15.563,389.139,0.001,370.139,0.001"/>
</g>
</svg>
