<?xml version="1.0" encoding="utf-8"?>
<!-- Generator: Adobe Illustrator 17.0.0, SVG Export Plug-In . SVG Version: 6.00 Build 0)  -->
<!DOCTYPE svg PUBLIC "-//W3C//DTD SVG 1.1//EN" "http://www.w3.org/Graphics/SVG/1.1/DTD/svg11.dtd">
<svg version="1.1" id="Capa_1" xmlns="http://www.w3.org/2000/svg" xmlns:xlink="http://www.w3.org/1999/xlink" x="0px" y="0px"
	 width="512px" height="512px" viewBox="0 0 512 512" enable-background="new 0 0 512 512" xml:space="preserve">
<g>
	<path fill="#010002" d="M14.049,430.129c-18.731,18.731-18.731,49.066,0,67.797c9.366,9.366,21.64,14.032,33.915,14.032
		s24.549-4.667,33.915-14.032l157.427-157.46l-67.83-67.766L14.049,430.129z"/>
	<polygon fill="#010002" points="407.506,138.353 476.071,102.903 511.967,33.507 478.5,0.04 409.136,35.969 373.623,104.47 
		290.226,187.962 324.046,221.845 	"/>
	<path fill="#010002" d="M422.529,320.33l-6.457-0.639c-11.699,0-22.791,2.397-33.147,6.233L186.115,129.083
		c3.836-10.356,6.233-21.448,6.233-33.147l-0.639-6.457C188.321,39.581,147.214,0.04,96.454,0.04
		c-14.768,0-28.609,3.612-41.107,9.59l63.706,63.706c3.356,3.356,5.658,7.319,7.192,11.508c4.187,11.315,1.918,24.549-7.192,33.691
		c-6.233,6.233-14.416,9.366-22.599,9.366c-3.772,0-7.512-0.831-11.092-2.173c-4.187-1.598-8.151-3.836-11.508-7.224L10.149,54.828
		c-5.978,12.498-9.59,26.339-9.59,41.107c0,50.76,39.541,91.867,89.438,95.255l6.457,0.639c11.699,0,22.791-2.397,33.147-6.201
		l196.776,196.809c-3.772,10.356-6.169,21.448-6.169,33.147l0.671,6.457c3.325,49.929,44.464,89.438,95.224,89.438
		c14.768,0,28.641-3.548,41.107-9.59l-63.706-63.706c-3.325-3.325-5.658-7.319-7.256-11.475
		c-4.187-11.315-1.918-24.581,7.256-33.723c6.169-6.233,14.416-9.366,22.599-9.366c3.772,0,7.479,0.799,11.124,2.173
		c4.187,1.567,8.183,3.804,11.475,7.192l63.706,63.706c6.009-12.531,9.59-26.339,9.59-41.107
		C511.967,364.825,472.427,323.718,422.529,320.33z"/>
</g>
</svg>
